<?xml version="1.0" encoding="utf-8"?>
<!-- Generator: Adobe Illustrator 19.2.0, SVG Export Plug-In . SVG Version: 6.00 Build 0)  -->
<!DOCTYPE svg PUBLIC "-//W3C//DTD SVG 1.1//EN" "http://www.w3.org/Graphics/SVG/1.1/DTD/svg11.dtd">
<svg version="1.1" id="icons" xmlns="http://www.w3.org/2000/svg" xmlns:xlink="http://www.w3.org/1999/xlink" x="0px" y="0px"
	 viewBox="0 0 289.8 292.3" style="enable-background:new 0 0 289.8 292.3;" xml:space="preserve">
<style type="text/css">
	.st0{enable-background:new    ;}
	.st1{fill:#FFFFFF;}
</style>
<title>fanbake-logo</title>
<g id="Fanbake_-_fan">
	<g id="Fanbake_-_fan-2">
		<g class="st0">
			<path class="st1" d="M24.3,255.6v4.8H9.8v9.7H22v4.9H9.8v13.3H3.6v-32.7H24.3z"/>
		</g>
		<g class="st0">
			<path class="st1" d="M68.2,288.3h-4.7c-0.5,0-1-0.1-1.3-0.4c-0.3-0.3-0.6-0.6-0.7-1l-2.4-6.7H45.5l-2.4,6.7
				c-0.1,0.3-0.4,0.7-0.7,1c-0.3,0.3-0.8,0.4-1.3,0.4h-4.8l12.9-32.7h6.2L68.2,288.3z M47,275.9h10.4l-4-10.9
				c-0.2-0.5-0.4-1.1-0.6-1.7c-0.2-0.7-0.4-1.4-0.6-2.1c-0.2,0.8-0.4,1.5-0.6,2.2c-0.2,0.7-0.4,1.2-0.6,1.7L47,275.9z"/>
			<path class="st1" d="M88.5,255.6c0.2,0,0.4,0.1,0.5,0.1c0.1,0.1,0.3,0.2,0.4,0.3s0.3,0.3,0.5,0.5l17.2,21.9c0-0.5-0.1-1-0.1-1.6
				c0-0.5,0-1,0-1.4v-19.9h5.4v32.7h-3.1c-0.5,0-0.9-0.1-1.2-0.2c-0.3-0.2-0.6-0.4-0.9-0.8l-17.1-21.8c0,0.5,0.1,1,0.1,1.4
				c0,0.5,0,0.9,0,1.3v20.1h-5.4v-32.7h3.2C88.1,255.6,88.3,255.6,88.5,255.6z"/>
		</g>
		<g class="st0">
			<path class="st1" d="M133.7,288.3v-32.7H145c2.1,0,4,0.2,5.5,0.6c1.5,0.4,2.8,1,3.7,1.7s1.7,1.7,2.1,2.7s0.7,2.3,0.7,3.6
				c0,0.8-0.1,1.5-0.3,2.2s-0.6,1.4-1.1,2s-1.1,1.2-1.8,1.7c-0.7,0.5-1.6,0.9-2.6,1.3c4.5,1,6.7,3.4,6.7,7.3c0,1.4-0.3,2.7-0.8,3.8
				s-1.3,2.2-2.3,3c-1,0.9-2.3,1.5-3.7,2s-3.2,0.7-5.1,0.7H133.7z M139.8,269.7h4.8c2.1,0,3.7-0.4,4.7-1.1c1.1-0.8,1.6-2,1.6-3.6
				c0-1.7-0.5-2.9-1.4-3.6s-2.5-1.1-4.5-1.1h-5.2V269.7z M139.8,274v9.6h6.2c1.1,0,2.1-0.1,2.9-0.4c0.8-0.3,1.4-0.6,1.8-1.1
				s0.8-1,1-1.6c0.2-0.6,0.3-1.2,0.3-1.9c0-0.7-0.1-1.3-0.3-1.9c-0.2-0.6-0.6-1-1.1-1.4c-0.5-0.4-1.1-0.7-1.9-0.9
				c-0.8-0.2-1.7-0.3-2.8-0.3H139.8z"/>
		</g>
		<g class="st0">
			<path class="st1" d="M204.7,288.3h-4.7c-0.5,0-1-0.1-1.3-0.4c-0.3-0.3-0.6-0.6-0.7-1l-2.4-6.7h-13.6l-2.4,6.7
				c-0.1,0.3-0.4,0.7-0.7,1c-0.3,0.3-0.8,0.4-1.3,0.4h-4.8l12.9-32.7h6.2L204.7,288.3z M183.5,275.9h10.4l-4-10.9
				c-0.2-0.5-0.4-1.1-0.6-1.7c-0.2-0.7-0.4-1.4-0.6-2.1c-0.2,0.8-0.4,1.5-0.6,2.2c-0.2,0.7-0.4,1.2-0.6,1.7L183.5,275.9z"/>
			<path class="st1" d="M227.1,269.3h1.4c0.6,0,1-0.1,1.4-0.2c0.4-0.2,0.7-0.4,1-0.8l9-11.4c0.4-0.5,0.8-0.8,1.2-1
				c0.4-0.2,0.9-0.3,1.6-0.3h5.3l-11,13.6c-0.6,0.8-1.3,1.4-2,1.8c0.5,0.2,0.9,0.4,1.3,0.8c0.4,0.3,0.8,0.8,1.1,1.3l11.4,15.3h-5.4
				c-0.7,0-1.3-0.1-1.6-0.3s-0.7-0.5-0.9-0.9l-9.3-12.1c-0.3-0.4-0.6-0.7-1-0.9c-0.4-0.2-0.9-0.2-1.6-0.2h-1.9v14.4H221v-32.7h6.1
				V269.3z"/>
			<path class="st1" d="M285.7,255.6v4.8h-14.5v9.1h11.5v4.7h-11.5v9.3h14.5v4.9h-20.7v-32.7H285.7z"/>
		</g>
		<g id="Fan">
			<g id="Left">
				<path class="st1" d="M38,115c0,29.3,23.7,53,53,53s53-23.7,53-53H38z"/>
			</g>
			<g id="Bottom">
				<path class="st1" d="M149,115v106c29.3,0,53-23.7,53-53S178.3,115,149,115z"/>
			</g>
			<g id="Right">
				<path class="st1" d="M202,57c-29.3,0-53,23.7-53,53h106C255,80.7,231.3,57,202,57z"/>
			</g>
			<g id="Top">
				<path class="st1" d="M91,57c0,29.3,23.7,53,53,53V4C114.8,4,91,27.7,91,57z"/>
			</g>
		</g>
	</g>
</g>
</svg>
